<?xml version="1.0" encoding="utf-8"?>
<?xml-stylesheet type="text/xsl" href="rss1.xsl"?>
<rss version="2.0" xmlns:atom="http://www.w3.org/2005/Atom" xmlns:content="http://purl.org/rss/1.0/modules/content/" xmlns:dc="http://purl.org/dc/elements/1.1/" xmlns:media="http://search.yahoo.com/mrss/">
<channel>
 <title>Getty</title>
 <link>http://www.gettyimg.com/</link>
 <atom:link href="http://www.gettyimg.com/" rel="self" type="application/rss+xml" />

 
                <item>
                <title><![CDATA[【Apple Music】WEB-RiP - Green Day - The American Dream Is Killing Me (2160p AM WEB-DL AAC2.0 H.265)]]></title>
                <link><![CDATA[https://sharemania.us/threads/green-day-the-american-dream-is-killing-me-2160p-am-web-dl-aac2-0-h-265.238464/]]></link>
                <description><![CDATA[<article>
<blockquote class="messageText SelectQuoteContainer ugc baseHtml">
<div style="text-align: center"><img src="https://i.gyazo.com/a499d66c509471838618b522050894dc.png" class="bbCodeImage LbImage" alt="[​IMG]" data-url="https://i.gyazo.com/a499d66c509471838618b522050894dc.png" style=""><br>
<br>
<div class="bbCodeBlock bbCodeCode">
<div class="type">Code:</div>
<pre>General
Unique ID                      : 120919163224191794330226187597460209635 (0x5AF82F08F422815CF61306D9095EFFE3)

Format                         : Matroska
Format version                 : Version 4
File size                      : 306 MiB
Duration                       : 3 min 26 s
Overall bit rate               : 12.5 Mb/s
Frame rate                     : 23.976 FPS
Encoded date                   : 2023-10-24 15:02:55 UTC
Writing application            : mkvmerge v67.0.0 ('Under Stars') 64-bit
Writing library                : libebml v1.4.2 + libmatroska v1.6.4
Cover                          : Yes
Attachments                    : cover.jpg

Video
ID                             : 1
Format                         : HEVC
Format/Info                    : High Efficiency Video Coding
Format profile                 : Main 10@L5@High
Codec ID                       : V_MPEGH/ISO/HEVC
Duration                       : 3 min 25 s
Bit rate                       : 12.2 Mb/s
Width                          : 3 840 pixels
Height                         : 2 160 pixels
Display aspect ratio           : 16:9
Frame rate mode                : Constant
Frame rate                     : 23.976 (23976/1000) FPS
Color space                    : YUV
Chroma subsampling             : 4:2:0
Bit depth                      : 10 bits
Bits/(Pixel*Frame)             : 0.061
Stream size                    : 300 MiB (98%)
Default                        : Yes
Forced                         : No
Color range                    : Limited
Color primaries                : BT.709
Transfer characteristics       : BT.709
Matrix coefficients            : BT.709

Audio
ID                             : 2
Format                         : AAC LC
Format/Info                    : Advanced Audio Codec Low Complexity
Codec ID                       : A_AAC-2
Duration                       : 3 min 26 s
Bit rate                       : 278 kb/s
Channel(s)                     : 2 channels
Channel layout                 : L R
Sampling rate                  : 48.0 kHz
Frame rate                     : 46.875 FPS (1024 SPF)
Compression mode               : Lossy
Stream size                    : 6.83 MiB (2%)
Default                        : Yes
Forced                         : No</pre>
</div>
<div class="bbCodeBlock bbCodeVfcHH HiddenContent">
<div class="attribution type">Hidden Content:</div>
<blockquote>You must either reply or click 'Like' to see the hidden information contained here.</blockquote>
</div></div>
<div class="messageTextEndMarker">&nbsp;</div>
</blockquote>
</article>]]></description>
                <author><![CDATA[Rey619Spear]]></author>
                </item>

                </channel></rss>